<svg height="385.210458" viewBox="0 0 62.358986 92.20594" width="259.598352" xmlns="http://www.w3.org/2000/svg"><g fill="none" fill-rule="evenodd" transform="translate(-14.541644 -99.89127)"><path d="m70.769106 192.09721v-5.40737h-7.267227v-18.03846h-5.837748v19.82702c0 1.9993 1.621983 3.61881 3.623563 3.61881zm-49.094756-3.61881c0 1.9993 1.622756 3.61881 3.625109 3.61881h10.503462v-5.40737h-8.29005v-3.64274h7.620537v-5.45831h-7.620537v-3.49916h8.325613v-5.43825h-14.164134zm21.752201 3.61881c-2.000807 0-3.62279-1.61951-3.62279-3.61881v-19.82702h14.235261v5.43825h-8.395966v3.50147h7.62131v5.456h-7.62131l-.0023 9.05011h-2.214185z" fill="#cc0835"/><path d="m24.905173 139.67653c-1.478958 0-2.676504 1.19649-2.676504 2.67011 0 1.47593 1.198319 2.67165 2.675731 2.67242 1.477412 0 2.675731-1.19649 2.675731-2.67165 0-1.47439-1.198319-2.67088-2.674958-2.67088m-6.444638-2.08344c-1.412471 0-2.558219 1.14323-2.558219 2.55355 0 1.41031 1.145748 2.55354 2.558219 2.55354 1.411697 0 2.557445-1.14323 2.557445-2.55354 0-1.41032-1.145748-2.55355-2.557445-2.55355m-.858152-7.10793c-1.690017 0-3.060739 1.36786-3.060739 3.0553s1.370722 3.0553 3.060739 3.0553 3.06074-1.36786 3.06074-3.0553c0-1.68666-1.370723-3.0553-3.06074-3.0553m.589109-7.69691c-1.81526 0-3.288033 1.46976-3.288033 3.28225s1.472773 3.28224 3.288033 3.28224c1.816034 0 3.288034-1.46975 3.287261-3.28224.000773-1.81249-1.472773-3.28225-3.287261-3.28225m2.797883-7.69922c-1.952874 0-3.534656 1.57936-3.534656 3.52849 0 1.94835 1.581782 3.52849 3.534656 3.52849 1.951327 0 3.533109-1.58014 3.533109-3.52849 0-1.94913-1.581782-3.52849-3.533109-3.52849m8.874521-.53958c-2.250521 0-4.075059 1.82175-4.075059 4.06961 0 2.24709 1.824538 4.06884 4.075832 4.06884 2.250521 0 4.075059-1.82175 4.075059-4.06884 0-2.24786-1.824538-4.06961-4.075832-4.06961m-5.090152 17.55291c-1.785882 0-3.233142 1.44659-3.233142 3.22975 0 1.78239 1.44726 3.22821 3.233142 3.22821 1.786656 0 3.233916-1.44582 3.233916-3.22821 0-1.78316-1.448033-3.22975-3.233916-3.22975m15.834824 28.06659c-.493244 0-.892168.39909-.892168.89081s.399698.89081.891395.89081c.494017 0 .892941-.39909.892941-.89081 0-.49326-.398924-.89081-.892168-.89081m-3.070017-1.85726c-.739092 0-1.336706.59747-1.336706 1.3339 0 .73642.597614 1.33389 1.336706 1.33389.736 0 1.334387-.5967 1.334387-1.33389 0-.73643-.598387-1.3339-1.334387-1.3339m-2.229647-3.95151c-.948605 0-1.717848.76885-1.717848 1.71523 0 .94716.769243 1.71446 1.717848 1.71446s1.717076-.7673 1.717076-1.71446c0-.94638-.768471-1.71523-1.717076-1.71523m-1.333613 3.66667c-.545042 0-.986488.43845-.986488.98189 0 .54421.441446.98421.984942.98421.545815 0 .985714-.44.985714-.98421 0-.54266-.439899-.98189-.984168-.98189m-5.835429-3.41348c-.589109 0-1.066891.47706-1.066118 1.06372 0 .58821.477009 1.0645 1.066118 1.0645.588336 0 1.064572-.47629 1.064572-1.0645 0-.58666-.476236-1.06372-1.064572-1.06372m3.206084.52029c-.788571 0-1.426386.63761-1.426386 1.42421 0 .78582.637815 1.42421 1.426386 1.42421.787025 0 1.425614-.63762 1.425614-1.42421 0-.7866-.638589-1.42421-1.425614-1.42421m-2.753042-4.31664c-.858924 0-1.556269.69551-1.556269 1.55467 0 .85839.697345 1.55544 1.557042 1.55544.859698 0 1.556269-.69705 1.556269-1.55544 0-.85916-.696571-1.55467-1.557042-1.55467m-3.729479.16211c-.800168 0-1.44958.64842-1.44958 1.4466.0015.79894.649412 1.44659 1.44958 1.44659.799395 0 1.448807-.64765 1.447261-1.44659 0-.79818-.647866-1.4466-1.447261-1.4466m-2.544302-3.17649c-.881345 0-1.595698.71403-1.595698 1.59403s.714353 1.5925 1.596471 1.5925c.881344 0 1.595697-.7125 1.595697-1.5925s-.714353-1.59403-1.59647-1.59403m-2.125278-4.40772c-1.116369 0-2.020907.90393-2.020907 2.0186 0 1.11312.904538 2.01628 2.020907 2.01628 1.115597 0 2.020135-.90316 2.020135-2.01628 0-1.11467-.904538-2.0186-2.020135-2.0186m5.976908 2.45937c-1.134924 0-2.054151.91705-2.054151 2.05101 0 1.13243.919227 2.05102 2.054151 2.05102 1.135697 0 2.054151-.91859 2.054151-2.05102 0-1.13396-.918454-2.05101-2.054151-2.05101m6.825008 3.81101c-1.184403 0-2.144605.95797-2.144605 2.13979.000773 1.1826.960202 2.14134 2.144605 2.14134 1.183631 0 2.143832-.95874 2.142286-2.14134 0-1.18182-.958655-2.13979-2.142286-2.13979m-1.681512-5.97859c-1.497513 0-2.710521 1.2127-2.710521 2.7087 0 1.49523 1.213008 2.70716 2.710521 2.70716 1.498285 0 2.712067-1.21193 2.712067-2.70716 0-1.496-1.213782-2.7087-2.712067-2.7087m-.112874-7.36035c-1.814488 0-3.284941 1.46821-3.284941 3.27916 0 1.81249 1.470453 3.2807 3.284941 3.2807 1.813714 0 3.284941-1.46821 3.284941-3.2807 0-1.81095-1.471227-3.27916-3.284941-3.27916m-4.835025-13.02786c-2.137648 0-3.871731 1.72989-3.871731 3.86582 0 2.13439 1.734083 3.86428 3.871731 3.86505 2.137647-.00077 3.870958-1.73143 3.871731-3.86505-.000773-2.13593-1.734858-3.86659-3.871731-3.86582m7.530857 4.65088c-2.187126 0-3.960639 1.77157-3.960639 3.95691 0 2.18379 1.773513 3.95537 3.960639 3.95537 2.188672 0 3.962185-1.77158 3.962185-3.95537 0-2.18534-1.773513-3.95691-3.962185-3.95691m4.527327-8.96597c-2.451529 0-4.436874 1.98386-4.436874 4.43011 0 2.44701 1.985345 4.43087 4.436874 4.43087 2.449984 0 4.437647-1.98386 4.437647-4.43087 0-2.44625-1.987663-4.43011-4.437647-4.43011m7.986219-14.11782c-1.478185 0-2.675731 1.19572-2.675731 2.67087 0 1.47439 1.197546 2.67165 2.675731 2.67165 1.476639 0 2.674958-1.19726 2.675731-2.67165-.000773-1.47515-1.199092-2.67087-2.675731-2.67087m5.130353-4.35446c-1.411698 0-2.556672 1.144-2.556672 2.55354 0 1.41032 1.144974 2.55355 2.558218 2.55355 1.410924 0 2.555899-1.14323 2.555899-2.55355 0-1.40954-1.144975-2.55354-2.557445-2.55354m6.158588 2.06028c-1.690017 0-3.059966 1.36709-3.059966 3.05453 0 1.68743 1.369949 3.0553 3.059966 3.0553 1.69079 0 3.061513-1.36787 3.06074-3.0553.000773-1.68744-1.36995-3.05453-3.06074-3.05453m6.184101 4.01712c-1.815261-.00077-3.286487 1.46976-3.286487 3.28148 0 1.81249 1.471226 3.28302 3.286487 3.28302 1.816034 0 3.288807-1.47053 3.288807-3.28302 0-1.81172-1.472773-3.28148-3.288807-3.28148m5.065412 5.89909c-1.950555 0-3.533109 1.57937-3.533109 3.52849 0 1.94835 1.582554 3.52849 3.533109 3.52849 1.952874 0 3.534655-1.58014 3.534655-3.52849 0-1.94912-1.581781-3.52849-3.534655-3.52849m-4.437647 7.13263c-2.251294 0-4.075059 1.82253-4.075059 4.06962 0 2.24708 1.823765 4.06961 4.075059 4.06961 2.249748 0 4.074285-1.82253 4.074285-4.06961 0-2.24709-1.824537-4.06962-4.074285-4.06962m-11.951496-11.91628c-1.785883 0-3.23237 1.44428-3.23237 3.22744 0 1.78393 1.446487 3.22898 3.233143 3.22898 1.785882 0 3.23237-1.44505 3.23237-3.22898 0-1.78316-1.446488-3.22821-3.233143-3.22744m-30.231664 3.16569c-.492471 0-.892168.39831-.892168.89003 0 .49249.399697.89081.892168.89081.493244 0 .892168-.39832.892168-.89081 0-.49172-.398924-.89003-.892168-.89003m2.762319-2.39221c-.739092 0-1.335932.59747-1.335932 1.33389s.597613 1.3339 1.335932 1.3339c.737546 0 1.33516-.59748 1.33516-1.3339s-.597614-1.33389-1.33516-1.33389m4.211126-.52337c-.949378 0-1.717848.76807-1.717848 1.71522 0 .94716.76847 1.71446 1.717848 1.71446.947832 0 1.716303-.7673 1.716303-1.71446 0-.94715-.768471-1.71522-1.716303-1.71522m-1.878655-1.88892c-.543496 0-.984168.44001-.984168.98344 0 .54267.440672.98344.984168.98344.545042 0 .984941-.44077.984941-.98344 0-.54343-.439899-.98344-.984941-.98344m5.80837-3.46056c-.58911 0-1.066118.47628-1.066118 1.0645 0 .58743.477008 1.06371 1.066118 1.06371.588336 0 1.064571-.47628 1.064571-1.06371 0-.58822-.476235-1.0645-1.064571-1.0645m-2.366488 1.97228c-.788571 0-1.425613.63762-1.425613 1.42422 0 .78582.637042 1.4242 1.425613 1.4242.787799 0 1.425614-.63761 1.425614-1.4242 0-.7866-.637815-1.42422-1.425614-1.42422m5.005883-.41684c-.860471 0-1.557816.69551-1.557816 1.55467 0 .85838.697345 1.55389 1.557816 1.55389.859697 0 1.556268-.69551 1.556268-1.55389 0-.85916-.696571-1.55467-1.556268-1.55467m1.819126-3.14407c-.800168 0-1.448807.64765-1.448807 1.44583 0 .79894.648639 1.44582 1.448807 1.44582s1.44726-.64688 1.44726-1.44582c0-.79818-.648638-1.44583-1.44726-1.44583m3.899563-.83291c-.882118 0-1.597244.71326-1.597244 1.59326s.715126 1.59404 1.597244 1.59404c.881344 0 1.594924-.71404 1.594924-1.59404.000773-.88-.71358-1.59326-1.594924-1.59326m4.51805-.29179c-1.11637 0-2.021681.90316-2.021681 2.01782 0 1.1139.905311 2.01706 2.021681 2.01706 1.115597 0 2.020908-.90316 2.020908-2.01706 0-1.11466-.905311-2.01782-2.020908-2.01782m-5.150454 3.90983c-1.135697 0-2.055697.91936-2.055697 2.05178 0 1.13397.92 2.05179 2.055697 2.05179 1.133378 0 2.052605-.91782 2.052605-2.05179 0-1.13319-.919227-2.05178-2.052605-2.05178m-6.796403 3.86119c-1.184403 0-2.143832.95951-2.143832 2.14133 0 1.18337.959429 2.14133 2.144605 2.14133 1.182857 0 2.143832-.95796 2.143832-2.14133 0-1.18182-.960975-2.14133-2.144605-2.14133m5.534689.68547c-1.498286 0-2.711294 1.21347-2.71284 2.70793 0 1.496 1.214554 2.70716 2.71284 2.70793 1.497513 0 2.711294-1.21193 2.710521-2.70793 0-1.49446-1.213008-2.70793-2.710521-2.70793m5.944437 2.72414c-1.813714 0-3.284941 1.46898-3.284941 3.27993 0 1.81172 1.471227 3.27993 3.284941 3.27993 1.814487 0 3.284168-1.46821 3.284168-3.27993 0-1.81095-1.469681-3.27993-3.284168-3.27993m13.209345 1.45509c-2.138421 0-3.871732 1.72989-3.870958 3.86582-.000774 2.13439 1.732537 3.86429 3.870958 3.86429 2.13842 0 3.870957-1.7299 3.871731-3.86429-.000774-2.13593-1.734084-3.86582-3.871731-3.86582m-7.878757 4.05109c-2.187899 0-3.961411 1.7708-3.961411 3.95614 0 2.18456 1.773512 3.95537 3.961411 3.95537s3.962185-1.77081 3.961412-3.95537c.000773-2.18534-1.773513-3.95614-3.961412-3.95614m5.101748 7.68533c-2.449983 0-4.437647 1.98463-4.437647 4.43165 0 2.44547 1.987664 4.42933 4.437647 4.42933 2.450756 0 4.437647-1.98386 4.437647-4.42933 0-2.44702-1.986891-4.43165-4.437647-4.43165m9.778286 16.60421c-1.477412 0-2.676504 1.19495-2.676504 2.67088s1.199092 2.67087 2.676504 2.67087c1.476639 0 2.674958-1.19494 2.674958-2.67087s-1.198319-2.67088-2.674958-2.67088m1.311966 6.7899c-1.411697 0-2.557445 1.144-2.557445 2.55354s1.145748 2.55354 2.557445 2.55354c1.413244 0 2.558219-1.144 2.558219-2.55354s-1.144975-2.55354-2.558219-2.55354m-5.299664 3.54315c-1.69079 0-3.059966 1.36709-3.059966 3.0553 0 1.68667 1.369176 3.0553 3.059966 3.0553 1.689244 0 3.059194-1.36863 3.059194-3.0553 0-1.68821-1.36995-3.0553-3.059194-3.0553m-6.77321 2.99895c-1.81526 0-3.288033 1.46975-3.288033 3.28147 0 1.81404 1.472773 3.28302 3.288033 3.28302 1.815261 0 3.287261-1.46898 3.287261-3.28302 0-1.81172-1.472-3.28147-3.287261-3.28147m-7.863294 1.06063c-1.951328 0-3.534655 1.58014-3.534655 3.52772 0 1.94912 1.583327 3.52926 3.534655 3.52926s3.533109-1.58014 3.533109-3.52926c0-1.94758-1.581781-3.52772-3.533109-3.52772m-4.436101-8.21565c-2.251294 0-4.075832 1.82176-4.075832 4.06885 0 2.24708 1.824538 4.07038 4.075832 4.07038 2.249748 0 4.075059-1.8233 4.075059-4.07038 0-2.24709-1.825311-4.06885-4.075059-4.06885m17.040101-3.11396c-1.785882 0-3.23237 1.44582-3.23237 3.22821 0 1.78316 1.446488 3.22898 3.23237 3.22898 1.786656 0 3.233143-1.44582 3.233143-3.22898 0-1.78239-1.446487-3.22821-3.233143-3.22821m14.397614-24.2193c-.492471 0-.891395.39909-.891395.89158 0 .49172.398924.89003.891395.89003.49247 0 .892941-.39831.892941-.89003 0-.49249-.400471-.89158-.892941-.89158m.30847 2.92021c-.737546 0-1.335159.59747-1.335159 1.3339 0 .73642.597613 1.33389 1.335159 1.33389.739093 0 1.336706-.59747 1.336706-1.33389 0-.73643-.597613-1.3339-1.336706-1.3339m-1.979933 3.33165c-.949378 0-1.717075.7673-1.717075 1.71368 0 .94716.767697 1.71523 1.717075 1.71523.947059 0 1.716303-.76807 1.716303-1.71523 0-.94638-.769244-1.71368-1.716303-1.71368m3.210723.41761c-.545042 0-.984941.44078-.984941.98344 0 .54344.439899.98421.984941.98421.544269 0 .984168-.44077.984168-.98421 0-.54266-.439899-.98344-.984168-.98344m.06803 6.63088c-.589109 0-1.065345.47628-1.065345 1.06449 0 .58667.476236 1.06372 1.065345 1.06372s1.065344-.47705 1.065344-1.06372c0-.58821-.476235-1.06449-1.065344-1.06449m-.880572-3.57249c-.787798 0-1.42484.63839-1.42484 1.42498 0 .7866.637042 1.42344 1.42484 1.42344.787799 0 1.425614-.63684 1.425614-1.42344 0-.78659-.637815-1.42498-1.425614-1.42498m-2.253613 4.34288c-.860471 0-1.557042.69473-1.557042 1.55466 0 .85762.696571 1.5539 1.557042 1.5539.859697 0 1.557042-.69628 1.557042-1.5539 0-.85993-.697345-1.55466-1.557042-1.55466m1.911899 3.30694c-.800168 0-1.448034.64688-1.448034 1.44506 0 .79972.647866 1.44737 1.448034 1.44737.799395 0 1.44726-.64765 1.44726-1.44737 0-.79818-.647865-1.44506-1.44726-1.44506m-1.356034 3.56709c-.880571 0-1.595697.71326-1.595697 1.59326s.715126 1.59327 1.595697 1.59327c.882118 0 1.596471-.71327 1.596471-1.59327s-.714353-1.59326-1.596471-1.59326m-2.392 3.40653c-1.115596 0-2.020907.90393-2.020907 2.01705 0 1.11467.905311 2.01705 2.020907 2.01705 1.11637 0 2.020135-.90238 2.020135-2.01705 0-1.11312-.903765-2.01705-2.020135-2.01705m-.826453-6.45102c-1.134925 0-2.055698.9186-2.055698 2.05256 0 1.13242.920773 2.05102 2.055698 2.05102 1.134151 0 2.054151-.9186 2.054151-2.05102 0-1.13396-.92-2.05256-2.054151-2.05256m-.02938-7.94007c-1.183631 0-2.145379.95951-2.145379 2.14133 0 1.18183.961748 2.14057 2.145379 2.14057 1.184403 0 2.144605-.95874 2.144605-2.14057 0-1.18182-.960202-2.14133-2.144605-2.14133m-3.854723 3.59256c-1.495967 0-2.710521 1.21193-2.710521 2.70793 0 1.49523 1.214554 2.70716 2.710521 2.70716 1.497512 0 2.71284-1.21193 2.71284-2.70716 0-1.496-1.215328-2.70793-2.71284-2.70793m-5.830017 2.92021c-1.81526 0-3.285714 1.46821-3.285714 3.27993s1.470454 3.2807 3.285714 3.2807c1.813714 0 3.284168-1.46898 3.284168-3.2807s-1.470454-3.27993-3.284168-3.27993m-8.375092 9.81663c-2.136874 0-3.870958 1.73067-3.870958 3.86583 0 2.13438 1.734084 3.86582 3.870958 3.86582 2.13842 0 3.871731-1.73144 3.871731-3.86582 0-2.13516-1.733311-3.86583-3.871731-3.86583m.347126-8.97368c-2.1879 0-3.961412 1.77081-3.961412 3.95614 0 2.18456 1.773512 3.95537 3.961412 3.95537 2.188672 0 3.962958-1.77081 3.962958-3.95537 0-2.18533-1.774286-3.95614-3.962958-3.95614m-5.191429 4.28807c0 2.44625-1.986118 4.42933-4.436874 4.42933-2.449983 0-4.436874-1.98308-4.436874-4.42933 0-2.44779 1.986891-4.43165 4.436874-4.43165 2.450756 0 4.436874 1.98386 4.436874 4.43165" fill="#26358c"/></g></svg>