<svg xmlns="http://www.w3.org/2000/svg" viewBox="0 0 200 200" width="200" height="200">
	<style>
		tspan { white-space:pre }
		.shp0 { fill: #040506 } 
		.shp1 { fill: #ffffff } 
		.shp2 { fill: #ef4859 } 
		.shp3 { fill: #65c3ef } 
		.shp4 { fill: #25b67c } 
		.shp5 { fill: #f79621 } 
		.shp6 { fill: #fae454 } 
	</style>
	<g >
		<path class="shp0" d="M94.59 0.13C93.75 0.18 92.13 0.3 91.01 0.4C89.88 0.5 88.01 0.71 86.85 0.86C85.69 1.02 83.7 1.33 82.41 1.55C81.13 1.78 79.11 2.18 77.92 2.45C76.73 2.72 74.78 3.2 73.59 3.52C72.4 3.85 70.07 4.56 68.41 5.12C66.75 5.67 64.52 6.46 63.46 6.89C62.4 7.31 60.65 8.04 59.59 8.51C58.53 8.98 56.59 9.89 55.29 10.54C53.99 11.19 52.28 12.09 51.48 12.54C50.68 12.98 49.34 13.76 48.49 14.27C47.65 14.78 45.88 15.91 44.56 16.78C43.25 17.65 41.18 19.12 39.95 20.04C38.73 20.96 36.94 22.38 35.97 23.19C35 24 33.59 25.22 32.84 25.9C32.09 26.58 30.5 28.11 29.3 29.3C28.11 30.5 26.58 32.09 25.9 32.84C25.22 33.59 24 35 23.19 35.97C22.38 36.94 20.96 38.73 20.04 39.95C19.12 41.18 17.65 43.25 16.78 44.56C15.91 45.88 14.78 47.65 14.27 48.49C13.76 49.34 12.98 50.68 12.54 51.48C12.09 52.28 11.19 53.99 10.54 55.29C9.89 56.59 8.98 58.53 8.51 59.59C8.04 60.65 7.31 62.4 6.89 63.46C6.46 64.52 5.67 66.75 5.12 68.41C4.56 70.07 3.83 72.48 3.48 73.76C3.13 75.05 2.65 77.02 2.4 78.14C2.15 79.27 1.76 81.19 1.55 82.41C1.33 83.63 1.03 85.63 0.87 86.85C0.71 88.07 0.5 89.94 0.4 91.01C0.31 92.07 0.18 93.89 0.11 95.05C0.05 96.21 0 98.5 0 100.14C0 101.79 0.05 104.01 0.12 105.09C0.18 106.17 0.31 107.93 0.4 108.99C0.5 110.06 0.68 111.75 0.81 112.75C0.93 113.75 1.21 115.62 1.43 116.9C1.65 118.19 2.01 120.08 2.23 121.12C2.45 122.15 2.84 123.79 3.09 124.76C3.34 125.73 3.76 127.29 4.04 128.23C4.32 129.17 4.91 131.01 5.36 132.33C5.8 133.64 6.5 135.56 6.91 136.6C7.32 137.63 8.04 139.35 8.51 140.41C8.98 141.47 9.87 143.36 10.49 144.59C11.1 145.83 12 147.55 12.48 148.41C12.96 149.27 13.81 150.74 14.37 151.68C14.94 152.62 16.07 154.39 16.89 155.61C17.71 156.83 19.13 158.82 20.04 160.05C20.96 161.27 22.38 163.06 23.19 164.03C24 165 25.22 166.41 25.9 167.16C26.58 167.91 28.11 169.5 29.3 170.7C30.5 171.89 32.09 173.42 32.84 174.1C33.59 174.78 35 176 35.97 176.81C36.94 177.62 38.76 179.06 40.01 180C41.26 180.94 43.36 182.42 44.68 183.3C45.99 184.17 47.91 185.39 48.95 186C49.98 186.61 51.39 187.41 52.08 187.79C52.77 188.17 54.3 188.96 55.49 189.56C56.68 190.15 58.53 191.02 59.59 191.49C60.65 191.96 62.4 192.69 63.46 193.11C64.52 193.54 66.75 194.33 68.41 194.88C70.07 195.44 72.48 196.17 73.76 196.52C75.05 196.87 77.02 197.35 78.14 197.6C79.27 197.85 81.19 198.24 82.41 198.45C83.63 198.67 85.63 198.97 86.85 199.13C88.07 199.29 89.94 199.5 91.01 199.6C92.07 199.69 93.83 199.82 94.91 199.88C95.99 199.95 98.32 200 100.09 200C101.85 200 104.48 199.92 105.92 199.83C107.36 199.73 109.31 199.58 110.24 199.48C111.18 199.39 113.02 199.16 114.31 198.97C115.61 198.79 117.64 198.45 118.81 198.23C119.98 198.01 121.82 197.62 122.88 197.37C123.94 197.12 125.66 196.68 126.69 196.4C127.73 196.12 129.93 195.44 131.59 194.88C133.25 194.33 135.48 193.54 136.54 193.11C137.6 192.69 139.35 191.96 140.41 191.49C141.47 191.02 143.36 190.13 144.59 189.51C145.83 188.9 147.55 188 148.41 187.52C149.27 187.05 150.74 186.19 151.68 185.63C152.62 185.06 154.36 183.94 155.55 183.15C156.74 182.35 158.63 181.01 159.76 180.17C160.89 179.33 162.42 178.14 163.18 177.52C163.93 176.91 165.34 175.71 166.31 174.86C167.28 174.01 169.25 172.13 170.69 170.69C172.13 169.25 174.01 167.28 174.86 166.31C175.71 165.34 176.91 163.93 177.52 163.18C178.14 162.42 179.33 160.89 180.17 159.76C181.01 158.63 182.35 156.74 183.15 155.55C183.94 154.36 185.06 152.62 185.63 151.68C186.19 150.74 187.05 149.27 187.52 148.41C188 147.55 188.9 145.83 189.51 144.59C190.13 143.36 191.02 141.47 191.49 140.41C191.96 139.35 192.69 137.6 193.11 136.54C193.54 135.48 194.33 133.25 194.88 131.59C195.44 129.93 196.12 127.73 196.4 126.69C196.68 125.66 197.12 123.94 197.37 122.88C197.62 121.82 198.01 119.98 198.23 118.81C198.45 117.64 198.79 115.61 198.97 114.31C199.16 113.02 199.39 111.18 199.48 110.24C199.58 109.31 199.71 107.85 199.77 107C199.84 106.16 199.93 103.72 199.96 101.59C200.01 99.19 199.98 96.8 199.9 95.28C199.83 93.93 199.69 91.98 199.6 90.95C199.5 89.92 199.29 88.07 199.13 86.85C198.97 85.63 198.67 83.63 198.45 82.41C198.24 81.19 197.85 79.27 197.6 78.14C197.35 77.02 196.87 75.05 196.52 73.76C196.17 72.48 195.44 70.07 194.88 68.41C194.33 66.75 193.54 64.52 193.11 63.46C192.69 62.4 191.96 60.65 191.49 59.59C191.02 58.53 190.15 56.68 189.56 55.49C188.96 54.3 188.17 52.77 187.79 52.08C187.41 51.39 186.61 49.98 186 48.95C185.39 47.91 184.17 45.99 183.3 44.68C182.42 43.36 180.94 41.26 180 40.01C179.06 38.76 177.62 36.94 176.81 35.97C176 35 174.78 33.59 174.1 32.84C173.42 32.09 171.89 30.5 170.7 29.3C169.5 28.11 167.91 26.58 167.16 25.9C166.41 25.22 165 24 164.03 23.19C163.06 22.38 161.27 20.96 160.05 20.04C158.82 19.13 156.83 17.71 155.61 16.89C154.39 16.07 152.62 14.94 151.68 14.37C150.74 13.81 149.27 12.96 148.41 12.48C147.55 12 145.83 11.1 144.59 10.49C143.36 9.87 141.47 8.98 140.41 8.51C139.35 8.04 137.63 7.32 136.6 6.91C135.56 6.5 133.64 5.8 132.33 5.36C131.01 4.91 129.17 4.32 128.23 4.04C127.29 3.76 125.73 3.34 124.76 3.09C123.79 2.84 122.15 2.45 121.12 2.23C120.08 2.01 118.19 1.65 116.9 1.43C115.62 1.21 113.75 0.93 112.75 0.81C111.75 0.68 110.06 0.5 108.99 0.4C107.93 0.31 106.17 0.18 105.09 0.12C104.01 0.05 101.56 0.01 99.63 0.02C97.7 0.03 95.44 0.07 94.59 0.13Z" />
		<path class="shp1" d="M94.31 5.81C93.49 5.87 91.98 5.99 90.95 6.09C89.92 6.19 88.15 6.4 87.02 6.56C85.9 6.72 84.03 7.02 82.87 7.23C81.71 7.44 79.84 7.83 78.71 8.09C77.59 8.35 75.54 8.89 74.16 9.28C72.78 9.68 70.73 10.32 69.61 10.7C68.48 11.08 66.61 11.77 65.45 12.23C64.29 12.7 62.6 13.4 61.7 13.81C60.79 14.21 59.1 15.01 57.94 15.59C56.78 16.17 55.14 17.03 54.3 17.51C53.45 17.98 52.04 18.8 51.17 19.33C50.29 19.86 48.68 20.9 47.58 21.63C46.49 22.37 44.85 23.52 43.94 24.2C43.03 24.87 41.65 25.94 40.87 26.57C40.08 27.2 38.62 28.43 37.62 29.31C36.62 30.18 34.7 32 33.35 33.35C32 34.7 30.18 36.62 29.31 37.62C28.43 38.62 27.2 40.08 26.57 40.87C25.94 41.65 24.87 43.03 24.2 43.94C23.52 44.85 22.37 46.49 21.63 47.58C20.9 48.68 19.86 50.29 19.33 51.17C18.8 52.04 17.98 53.45 17.51 54.3C17.03 55.14 16.17 56.78 15.59 57.94C15.02 59.1 14.21 60.79 13.8 61.7C13.39 62.6 12.68 64.32 12.21 65.51C11.74 66.7 10.98 68.8 10.52 70.18C10.06 71.55 9.4 73.71 9.05 74.96C8.7 76.21 8.19 78.26 7.91 79.51C7.63 80.76 7.23 82.84 7.01 84.12C6.79 85.4 6.51 87.3 6.38 88.33C6.25 89.37 6.06 91.16 5.95 92.32C5.8 93.98 5.76 95.62 5.76 100.06C5.75 104.53 5.79 106.13 5.95 107.8C6.06 108.96 6.25 110.75 6.38 111.78C6.51 112.81 6.79 114.71 7.01 115.99C7.23 117.28 7.63 119.35 7.91 120.6C8.19 121.86 8.7 123.9 9.05 125.16C9.4 126.41 10.06 128.56 10.52 129.94C10.98 131.31 11.74 133.41 12.21 134.6C12.68 135.79 13.39 137.51 13.8 138.42C14.21 139.33 15.02 141.02 15.59 142.17C16.17 143.33 17.03 144.97 17.51 145.82C17.98 146.66 18.8 148.07 19.33 148.95C19.86 149.82 20.9 151.44 21.63 152.53C22.37 153.63 23.52 155.27 24.2 156.18C24.87 157.08 25.94 158.47 26.57 159.25C27.2 160.03 28.43 161.49 29.31 162.49C30.18 163.49 32 165.42 33.35 166.76C34.7 168.11 36.62 169.93 37.62 170.81C38.62 171.68 40.08 172.92 40.87 173.55C41.65 174.18 43.03 175.24 43.94 175.92C44.85 176.59 46.49 177.74 47.58 178.48C48.68 179.21 50.29 180.25 51.17 180.78C52.04 181.31 53.45 182.14 54.3 182.61C55.14 183.08 56.78 183.94 57.94 184.52C59.1 185.1 60.79 185.91 61.7 186.31C62.6 186.72 64.32 187.44 65.51 187.91C66.7 188.38 68.8 189.14 70.18 189.6C71.55 190.06 73.71 190.72 74.96 191.06C76.21 191.41 78.26 191.92 79.51 192.2C80.76 192.48 82.84 192.89 84.12 193.1C85.4 193.32 87.3 193.6 88.33 193.73C89.37 193.86 91.16 194.05 92.32 194.16C93.98 194.32 95.59 194.36 100.06 194.36C104.52 194.36 106.13 194.32 107.8 194.16C108.96 194.05 110.75 193.86 111.78 193.73C112.81 193.6 114.71 193.32 115.99 193.1C117.28 192.89 119.35 192.48 120.6 192.2C121.86 191.92 123.9 191.41 125.16 191.06C126.41 190.72 128.56 190.06 129.94 189.6C131.31 189.14 133.41 188.38 134.6 187.91C135.79 187.44 137.51 186.72 138.42 186.31C139.33 185.91 141.02 185.1 142.17 184.52C143.33 183.94 144.97 183.08 145.82 182.61C146.66 182.14 148.07 181.31 148.95 180.78C149.82 180.25 151.44 179.21 152.53 178.48C153.63 177.74 155.27 176.59 156.18 175.92C157.08 175.24 158.47 174.18 159.25 173.55C160.03 172.92 161.49 171.68 162.49 170.81C163.49 169.93 165.42 168.11 166.76 166.76C168.11 165.42 169.93 163.49 170.81 162.49C171.68 161.49 172.92 160.03 173.55 159.25C174.18 158.47 175.24 157.08 175.92 156.18C176.59 155.27 177.74 153.63 178.48 152.53C179.21 151.44 180.25 149.82 180.78 148.95C181.31 148.07 182.14 146.66 182.61 145.82C183.08 144.97 183.94 143.33 184.52 142.17C185.1 141.02 185.91 139.33 186.31 138.42C186.72 137.51 187.44 135.79 187.91 134.6C188.38 133.41 189.14 131.31 189.6 129.94C190.06 128.56 190.72 126.41 191.06 125.16C191.41 123.9 191.92 121.86 192.2 120.6C192.48 119.35 192.89 117.28 193.1 115.99C193.32 114.71 193.6 112.81 193.73 111.78C193.86 110.75 194.05 108.96 194.16 107.8C194.32 106.13 194.36 104.53 194.36 100.06C194.36 95.62 194.32 93.98 194.16 92.32C194.05 91.16 193.86 89.37 193.73 88.33C193.6 87.3 193.32 85.4 193.1 84.12C192.89 82.84 192.48 80.76 192.2 79.51C191.92 78.26 191.41 76.21 191.06 74.96C190.72 73.71 190.06 71.55 189.6 70.18C189.14 68.8 188.38 66.7 187.91 65.51C187.44 64.32 186.72 62.6 186.31 61.7C185.91 60.79 185.1 59.1 184.52 57.94C183.94 56.78 183.08 55.14 182.61 54.3C182.14 53.45 181.31 52.04 180.78 51.17C180.25 50.29 179.21 48.68 178.48 47.58C177.74 46.49 176.59 44.85 175.92 43.94C175.24 43.03 174.18 41.65 173.55 40.87C172.92 40.08 171.68 38.62 170.81 37.62C169.93 36.62 168.11 34.7 166.76 33.35C165.42 32 163.49 30.18 162.49 29.31C161.49 28.43 160.03 27.2 159.25 26.57C158.47 25.94 157.08 24.87 156.18 24.2C155.27 23.52 153.63 22.37 152.53 21.63C151.44 20.9 149.82 19.86 148.95 19.33C148.07 18.8 146.66 17.98 145.82 17.51C144.97 17.03 143.33 16.17 142.17 15.59C141.02 15.01 139.33 14.21 138.42 13.81C137.51 13.4 135.79 12.69 134.6 12.21C133.41 11.74 131.31 10.98 129.94 10.52C128.56 10.06 126.41 9.4 125.16 9.05C123.9 8.7 121.86 8.19 120.6 7.91C119.35 7.63 117.28 7.23 115.99 7.01C114.71 6.79 112.81 6.51 111.78 6.38C110.75 6.25 109.01 6.07 107.91 5.97C106.54 5.84 104.34 5.77 100.85 5.75C98.07 5.73 95.12 5.76 94.31 5.81Z" />
		<path class="shp0" d="M98.86 21.92C98.9 25.17 99 32.29 99.09 37.73C99.18 43.18 99.26 48.25 99.26 49L99.26 50.37C103.36 50.5 105.27 50.64 106.15 50.76L107.74 50.97C108.53 50.07 109.2 49.34 109.73 48.77L110.7 47.73L115.94 21.18C114.98 19.81 114.32 18.9 113.85 18.27C113.38 17.64 112.97 17.1 112.93 17.05C112.89 17.01 112.07 16.87 111.1 16.74C110.13 16.61 108.49 16.43 107.46 16.33C106.42 16.23 104.05 16.12 102.19 16.08L98.8 16.02L98.86 21.92ZM93.74 16.24C93.49 16.26 92.52 16.36 91.58 16.46C90.64 16.55 89.86 16.64 89.85 16.66C89.84 16.67 90.31 20.59 90.9 25.38C91.48 30.17 91.99 34.28 92.03 34.52C92.06 34.75 92.05 34.95 92 34.95C91.96 34.95 91.59 34.19 91.19 33.27C90.78 32.34 90.04 30.67 89.52 29.54C89.01 28.41 87.97 26.24 87.2 24.7C86.43 23.17 85.62 21.58 85.4 21.17C85.18 20.77 84.65 19.82 84.22 19.07L83.45 17.7C82.25 17.92 80.94 18.23 79.76 18.53C78.41 18.87 77.63 19.12 77.63 19.21C77.63 19.29 79.64 26.74 82.09 35.77C84.54 44.8 86.55 52.2 86.56 52.21C86.56 52.23 87.31 52.05 88.22 51.83C89.13 51.61 89.88 51.42 89.9 51.41C89.91 51.4 89.14 47.49 88.19 42.72C87.24 37.94 86.49 34.04 86.54 34.04C86.59 34.04 86.94 34.66 87.32 35.43C87.71 36.2 88.44 37.77 88.96 38.93C89.47 40.09 90.31 42.06 90.81 43.31C91.32 44.56 92.03 46.41 92.4 47.41C92.77 48.41 93.2 49.58 93.35 50.01L93.63 50.79C94.68 50.68 95.49 50.61 96.09 50.56C96.69 50.52 97.23 50.44 97.29 50.39C97.34 50.34 96.98 42.78 96.49 33.6C96.01 24.42 95.58 16.74 95.55 16.53L95.5 16.16C94.49 16.19 93.99 16.22 93.74 16.24ZM127.34 22.68C126.99 23.7 125.14 29.09 123.22 34.66C121.3 40.23 119.09 46.66 118.31 48.95C117.54 51.23 116.9 53.15 116.91 53.22C116.91 53.28 117.7 53.64 118.66 54.01L120.41 54.7C124.25 45.7 125.46 42.87 125.58 42.6L125.78 42.12L127.06 42.63C126.94 43.6 126.73 44.78 126.51 45.87C126.29 46.97 125.93 48.63 125.71 49.57C125.49 50.51 125.01 52.46 124.63 53.9C124.25 55.34 123.96 56.52 123.98 56.52C124 56.53 124.66 56.91 125.44 57.38C126.22 57.84 126.92 58.26 127 58.31C127.11 58.37 127.38 57.7 128.05 55.63C128.55 54.12 129.19 52.05 129.48 51.05C129.77 50.05 130.28 48.17 130.6 46.88L131.19 44.52C132.42 43.92 133.5 43.45 134.37 43.08L135.95 42.4C140.9 34.11 142.33 31.6 142.32 31.47C142.31 31.35 142.01 30.25 141.66 29.03C141.31 27.81 140.94 26.71 140.83 26.6C140.72 26.49 139.31 25.73 137.68 24.93C136.05 24.12 133.98 23.14 133.07 22.76C132.16 22.37 130.69 21.78 129.8 21.45C128.9 21.11 128.13 20.83 128.07 20.83C128.02 20.83 127.69 21.66 127.34 22.68ZM66.48 23.04C65.44 23.49 63.87 24.23 62.98 24.68C62.08 25.13 61.36 25.54 61.36 25.58C61.36 25.63 61.51 26.18 61.71 26.81C61.9 27.43 62.44 29.17 62.91 30.68C63.39 32.18 64.22 34.69 64.77 36.25C65.32 37.82 66.11 40.02 66.53 41.15C66.95 42.28 67.75 44.33 68.3 45.7C68.85 47.08 69.83 49.46 70.49 51C71.15 52.53 72.11 54.71 72.63 55.83C73.15 56.96 73.59 57.91 73.62 57.94C73.64 57.97 73.83 57.9 74.03 57.78C74.23 57.67 74.98 57.23 75.7 56.82C76.42 56.41 77.02 56.07 77.04 56.07C77.05 56.07 76.97 55.83 76.85 55.55C76.74 55.27 76.15 53.73 75.54 52.13C74.94 50.54 74.45 49.17 74.45 49.09C74.45 49.01 74.84 48.76 75.33 48.54C75.81 48.32 76.63 47.96 77.15 47.74C77.67 47.53 78.11 47.35 78.14 47.35C78.18 47.35 78.76 48.34 79.44 49.54C80.12 50.75 80.92 52.21 81.23 52.79C81.62 53.53 81.84 53.83 81.96 53.8C82.05 53.77 82.87 53.48 83.78 53.16C84.69 52.84 85.44 52.56 85.46 52.55C85.48 52.54 85.1 51.69 84.62 50.65C84.15 49.62 82.94 47.16 81.95 45.19C80.95 43.22 79.6 40.61 78.93 39.39C78.27 38.16 77.12 36.12 76.38 34.83C75.65 33.55 74.44 31.5 73.7 30.28C72.96 29.06 71.79 27.16 71.09 26.07C70.39 24.97 69.54 23.65 69.2 23.13C68.86 22.61 68.53 22.19 68.47 22.2C68.41 22.2 67.51 22.58 66.48 23.04Z" />
		<path class="shp1" d="M104.24 22.89C104.2 23.1 103.93 27.86 103.65 33.47C103.36 39.07 103.13 43.77 103.13 43.91C103.13 44.15 103.18 44.17 103.78 44.17C104.14 44.17 105.08 44.24 105.86 44.33C106.64 44.41 107.31 44.44 107.34 44.39C107.37 44.34 108 39.52 108.74 33.68C109.48 27.83 110.07 23.04 110.05 23.03C110.03 23.02 109.3 22.93 108.42 22.83C107.55 22.74 106.26 22.62 105.57 22.58L104.31 22.51L104.24 22.89ZM131.25 29.28C131.2 29.42 130.51 31.05 129.72 32.9C128.93 34.74 128.33 36.29 128.37 36.33C128.42 36.37 129.1 36.67 129.88 36.99C130.66 37.32 131.53 37.7 131.82 37.85C132.1 37.99 132.44 38.14 132.58 38.18C132.82 38.24 132.96 38 134.55 34.89C135.49 33.04 136.25 31.48 136.25 31.42C136.25 31.35 135.22 30.79 133.95 30.17C132.68 29.54 131.58 29.03 131.5 29.03C131.42 29.03 131.31 29.14 131.25 29.28ZM68.41 31.45C68.42 31.52 68.86 32.92 69.4 34.55C69.93 36.18 70.79 38.69 71.29 40.13C71.79 41.57 72.23 42.78 72.27 42.83C72.31 42.89 72.91 42.68 73.61 42.38C74.31 42.08 74.87 41.81 74.85 41.78C74.83 41.74 74.26 40.77 73.59 39.61C72.91 38.45 71.67 36.38 70.82 35C69.97 33.63 69.11 32.23 68.9 31.9C68.7 31.57 68.5 31.3 68.47 31.3C68.44 31.3 68.41 31.37 68.41 31.45Z" />
		<path class="shp0" d="M149.35 32.75C149.19 32.78 148.19 32.98 147.13 33.19C146.06 33.41 145.16 33.62 145.12 33.67C145.09 33.71 141.69 38.78 137.58 44.93L130.11 56.12C130.01 58.9 129.96 59.83 129.93 59.99C129.89 60.24 130.07 60.42 131.28 61.42C132.04 62.06 133.13 63.01 133.69 63.54L134.72 64.51C137.1 63.93 138.02 63.74 138.3 63.7C138.8 63.63 139.04 63.41 146.1 56.55C150.11 52.66 154.54 48.34 155.94 46.96L158.5 44.45L158.36 39.56C156.71 37.99 155.49 36.91 154.58 36.13C153.67 35.36 152.34 34.26 151.62 33.7C150.6 32.9 150.24 32.68 149.97 32.69C149.78 32.7 149.5 32.72 149.35 32.75ZM46.72 35.2C46.09 35.72 45 36.65 44.3 37.28C43.59 37.91 43.03 38.45 43.05 38.5C43.07 38.54 48.22 44.25 54.51 51.19C60.79 58.13 65.96 63.82 66 63.84C66.04 63.85 66.46 63.53 66.93 63.11C67.4 62.69 68.3 61.93 68.92 61.43C69.55 60.92 70.63 60.1 71.31 59.61C72 59.11 72.57 58.65 72.57 58.58C72.57 58.51 71.82 57.29 70.92 55.87L69.27 53.29C68.82 53.58 68.17 54.05 67.52 54.52C66.87 54.99 66.03 55.6 65.67 55.86L65 56.35C51.9 39.46 48.04 34.49 47.98 34.41C47.89 34.29 47.62 34.46 46.72 35.2Z" />
		<path class="shp1" d="M141.49 47.32C137.96 51.94 135.01 55.8 134.93 55.89C134.8 56.04 135 56.25 136.38 57.43C137.26 58.18 138.03 58.79 138.1 58.79C138.18 58.79 141.45 55.21 145.38 50.83L152.52 42.86C151.43 41.82 150.43 40.95 149.59 40.25C148.76 39.56 148.04 38.97 147.99 38.95C147.94 38.93 145.01 42.7 141.49 47.32Z" />
		<path class="shp0" d="M39.53 41.86C38.65 42.78 37.68 43.83 37.35 44.19L36.77 44.85C37.77 46.75 38.44 47.99 38.91 48.83C39.38 49.68 40.31 51.29 40.99 52.42C41.66 53.55 42.9 55.51 43.73 56.77C44.57 58.04 45.23 59.1 45.22 59.14C45.2 59.17 42.44 57.07 39.07 54.47C35.71 51.87 32.92 49.74 32.87 49.74C32.82 49.74 32.36 50.35 31.83 51.08C31.31 51.82 30.57 52.89 30.18 53.47C29.8 54.05 29.49 54.54 29.51 54.57C29.53 54.59 35.92 58.85 43.71 64.03C51.51 69.21 57.94 73.46 58.01 73.47C58.07 73.47 58.51 72.92 58.97 72.25C59.44 71.57 59.88 70.93 59.96 70.82C60.08 70.65 59.69 70.32 56.74 68.07L53.38 65.51C51.99 63.28 51.73 62.76 51.82 62.74C51.9 62.72 52.66 62.97 53.5 63.3C54.35 63.63 55.93 64.28 57.03 64.74C58.12 65.21 59.84 65.99 60.84 66.48L62.66 67.36L65.54 64.37C62.78 62.76 61.08 61.82 59.99 61.24C58.89 60.66 57.18 59.81 56.18 59.34C55.17 58.87 53.74 58.21 52.99 57.89C52.24 57.56 51.06 57.08 50.37 56.8C49.68 56.53 49.06 56.26 48.98 56.19C48.9 56.12 48.42 55.32 47.92 54.41C47.41 53.5 46.34 51.43 45.53 49.8C44.73 48.17 43.77 46.15 43.4 45.3C43.02 44.46 42.41 42.96 42.04 41.97C41.67 40.99 41.31 40.18 41.24 40.18C41.17 40.18 40.4 40.94 39.53 41.86ZM149.77 55.62L139.79 64.83C139.35 66.59 139.1 67.49 138.96 67.96L138.69 68.81C140.37 71.02 141.22 72.22 141.67 72.91L142.48 74.16C143.79 74.29 144.78 74.36 145.53 74.4L146.9 74.47C164.98 64.02 170.27 60.92 170.31 60.86C170.35 60.79 170.6 59.73 170.86 58.51C171.12 57.29 171.35 56.14 171.39 55.95C171.43 55.66 171.24 55.3 170.03 53.5C169.25 52.34 168.1 50.72 167.49 49.9C166.87 49.08 166.06 48.02 165.68 47.56L165 46.72C163.5 46.59 162.32 46.52 161.41 46.48L159.76 46.41L149.77 55.62Z" />
		<path class="shp1" d="M153.04 59.02C148.47 62.68 144.69 65.74 144.64 65.82C144.57 65.92 144.84 66.38 145.44 67.22C145.93 67.91 146.48 68.71 146.67 69.01C146.86 69.31 147.05 69.55 147.1 69.55C147.14 69.55 151.2 66.82 156.12 63.49L165.05 57.43C163.88 55.75 163.1 54.68 162.56 53.96C162.02 53.24 161.53 52.59 161.47 52.51C161.38 52.39 159.44 53.89 153.04 59.02Z" />
		<path fill-rule="evenodd" class="shp0" d="M102.48 59.77C102.62 59.76 102.94 60.27 103.67 61.65C104.22 62.69 104.72 63.56 104.78 63.59C104.84 63.62 106 63.3 107.34 62.89C108.69 62.47 109.82 62.15 109.87 62.17C109.91 62.19 110.63 63.1 113.01 66.19L115.95 65.71C117.57 65.45 118.93 65.23 118.98 65.23C119.03 65.23 119.61 66.24 120.28 67.47C120.94 68.71 121.53 69.77 121.58 69.83C121.65 69.91 122.46 69.76 126.12 68.87L126.57 69.24C126.82 69.44 127.89 70.38 130.87 73.02L130.76 77.58L136.14 79.85L136.14 83.55L138.51 87.82L137.23 92.71L138.85 94.56C139.74 95.58 140.47 96.45 140.47 96.5C140.47 96.55 140.34 97.05 140.18 97.61C140.01 98.17 139.78 98.98 139.44 100.17L135.83 100.11C133.84 100.08 131.88 100.02 131.47 99.99C130.77 99.94 130.57 99.99 127.6 100.97C125.88 101.54 124.42 101.99 124.36 101.96C124.3 101.93 123.39 101.15 120.43 98.58L112.18 99.24L108.34 97.48C106.23 96.52 104.47 95.74 104.43 95.76C104.4 95.78 104.62 98.4 105.47 107.4L106.66 108.4C107.32 108.95 107.93 109.44 108.03 109.5C108.12 109.55 117.95 109.63 129.88 109.67C141.81 109.71 152.1 109.77 152.76 109.79C153.42 109.81 159.74 109.85 166.82 109.87C173.89 109.88 180.56 109.91 183.61 109.96L183.61 110.27C183.61 110.45 183.5 111.3 183.38 112.18C183.25 113.06 183.12 113.85 183.09 113.94C183.05 114.09 181.84 114.11 162.83 114.06L160.53 115.42C159.26 116.18 158.23 116.83 158.23 116.88C158.23 116.92 159.69 118.16 161.48 119.64C163.26 121.11 164.83 122.38 164.97 122.47C165.2 122.6 166.11 122.4 173.67 120.47C178.32 119.29 182.15 118.35 182.18 118.38C182.21 118.41 182 119.39 181.72 120.55C181.43 121.7 181.16 122.72 181.12 122.8C181.08 122.88 178.47 123.6 175.24 124.42C172.05 125.23 169.4 125.89 169.35 125.89C169.3 125.9 169.28 125.95 169.29 126.01C169.31 126.07 171.06 127.56 173.19 129.32C175.32 131.08 177.18 132.62 177.58 132.95L177.05 134.12C176.76 134.76 176.35 135.63 176.14 136.06C175.93 136.48 175.74 136.83 175.73 136.83C175.71 136.83 173.32 134.86 170.4 132.45C167.49 130.04 165.09 128.07 165.05 128.07C165.02 128.07 163.19 130.13 160.98 132.65C158.76 135.16 157 137.25 157.05 137.29C157.1 137.33 160.59 138.58 164.8 140.08C169.01 141.58 172.45 142.85 172.45 142.91C172.45 142.98 171.96 143.8 171.37 144.74C170.77 145.67 170.22 146.43 170.14 146.41C170.07 146.39 166.98 145.29 163.29 143.97C159.6 142.65 156.48 141.54 156.36 141.5C156.18 141.45 156.15 141.48 156.2 141.66C156.24 141.79 157.12 145.73 158.17 150.43C159.21 155.12 160.04 159.02 160.01 159.08C159.99 159.14 159.21 159.91 158.29 160.79C157.38 161.66 156.6 162.35 156.58 162.32C156.55 162.29 156.13 160.49 155.64 158.31C155.15 156.13 154.71 154.35 154.67 154.35C154.62 154.35 152.32 155.69 149.54 157.32C146.77 158.96 144.46 160.34 144.39 160.39C144.32 160.45 145.11 161.98 146.53 164.54C147.76 166.76 148.78 168.6 148.78 168.61C148.78 168.63 148.02 169.16 147.07 169.81C146.13 170.45 145.34 170.96 145.32 170.94C145.29 170.93 144.1 168.79 140.05 161.47L134.71 160.11C130.78 159.12 129.32 158.79 129.2 158.87C129.1 158.94 128.68 159.38 127.49 160.73L137.86 175.24L136.63 175.83C135.95 176.16 135.08 176.57 134.69 176.75C134.3 176.92 133.96 177.04 133.94 177.01C133.92 176.97 131.83 174.06 129.31 170.52C126.79 166.98 124.7 164.04 124.66 163.99C124.62 163.94 123.18 165.42 121.47 167.29C119.75 169.16 118.22 170.82 117.8 171.26L122.19 175.53C124.6 177.87 126.58 179.82 126.58 179.85C126.58 179.88 125.8 180.15 124.85 180.45C123.89 180.74 122.87 181.05 122.05 181.27L118.77 178.07C116.8 176.15 115.45 174.92 115.41 175C115.37 175.07 114.7 176.96 113.93 179.19C112.53 183.23 112.52 183.26 112.18 183.32C111.99 183.35 110.97 183.48 109.9 183.6C108.84 183.72 107.96 183.81 107.95 183.8C107.94 183.79 108.8 181.27 109.86 178.2C110.92 175.13 111.76 172.57 111.74 172.51C111.72 172.45 108.7 170.69 105.02 168.61C101.35 166.53 98.31 164.81 98.26 164.8C98.21 164.78 96.77 165.38 95.07 166.14C93.37 166.89 91.97 167.53 91.97 167.56C91.97 167.59 94.54 170.64 97.68 174.33C100.81 178.03 103.94 181.7 105.86 183.95L105.49 184C105.29 184.03 104.1 184.09 100.57 184.21L93.8 176.21L93.48 176.64C93.3 176.87 92.19 178.49 91 180.23C89.82 181.97 88.78 183.39 88.7 183.38C88.62 183.38 88.04 183.3 87.39 183.21C86.75 183.11 85.79 182.95 84.29 182.67L87.56 177.85C89.36 175.19 90.85 172.98 90.87 172.93C90.88 172.88 90.24 172.06 89.44 171.11C88.64 170.16 87.93 169.38 87.85 169.38C87.77 169.38 85.89 170.18 83.67 171.16C81.44 172.14 79.6 172.96 79.57 172.99C79.54 173.03 79.09 174.24 78.57 175.68C78.05 177.13 77.42 178.89 76.72 180.88L75.78 180.59C75.27 180.43 74.37 180.14 73.79 179.96C73.21 179.78 72.74 179.6 72.74 179.57C72.74 179.54 73.51 177.37 74.45 174.76C75.39 172.14 76.23 169.95 76.3 169.88C76.38 169.81 78.05 169.05 80.02 168.18C81.99 167.32 83.93 166.47 85.03 165.96L84.78 165.63C84.63 165.45 83.28 163.85 79.03 158.85L79.16 155.26C79.24 153.29 79.28 151.65 79.25 151.62C79.23 151.59 76.76 152.79 68.32 157.03L68.37 157.43C68.4 157.65 68.83 162.44 69.33 168.07C69.82 173.71 70.23 178.4 70.23 178.51C70.23 178.68 69.98 178.61 68.61 178.04C67.72 177.67 66.75 177.26 66.45 177.13C65.92 176.9 65.91 176.88 65.85 176.29C65.81 175.97 65.63 173.98 65.45 171.88C65.26 169.79 65.11 168.06 65.11 168.04C65.11 168.03 63.25 168.94 56.86 172.14L56.4 171.88C56.15 171.74 55.24 171.17 54.38 170.61C53.52 170.06 52.82 169.58 52.82 169.55C52.82 169.52 55.48 168.16 58.74 166.53C63.91 163.95 64.66 163.54 64.66 163.32C64.66 163.18 64.54 161.75 64.14 157.21L57.4 154.42C53.69 152.88 50.63 151.63 50.61 151.65C50.59 151.67 50.05 154.83 49.41 158.68C48.77 162.53 48.22 165.78 48.17 165.89C48.1 166.08 47.96 166 47.07 165.27C46.51 164.82 45.69 164.12 44.45 163.03L45.56 156.39C46.17 152.73 46.66 149.66 46.64 149.55C46.62 149.39 45.65 149.72 40.98 151.46C37.88 152.62 35.32 153.56 35.29 153.55C35.26 153.55 34.65 152.81 33.95 151.9C33.25 151 32.67 150.22 32.67 150.17C32.67 150.12 33.94 149.61 35.49 149.04C37.04 148.46 40.38 147.22 47.52 144.56L47.8 142.88C47.95 141.96 48.11 141.09 48.17 140.95C48.22 140.81 49.04 139.68 49.98 138.45C51.33 136.67 51.66 136.17 51.54 136.07C51.46 136 49.76 134.93 44.11 131.45L43.64 131.94C43.38 132.22 40.19 135.58 29.94 146.39L29.27 145.33C28.9 144.75 28.39 143.92 27.64 142.69L28.2 142.12C28.51 141.8 30.75 139.45 33.18 136.88C35.61 134.31 37.86 131.95 38.18 131.62C38.5 131.29 38.73 131 38.7 130.96C38.67 130.93 35.3 131.85 31.22 133.01C27.13 134.17 23.75 135.1 23.71 135.07C23.66 135.05 23.26 134.2 22.82 133.19C22.28 131.93 22.07 131.32 22.16 131.27C22.23 131.22 26.24 130.06 31.06 128.69C36.66 127.09 39.84 126.13 39.84 126.04C39.84 125.96 39.22 123.3 38.47 120.12C37.72 116.94 37.05 114.15 36.88 113.49L34.32 113.48L27.83 121.13C24.26 125.33 21.31 128.83 21.26 128.9C21.22 128.97 21.16 129 21.14 128.97C21.11 128.94 20.75 127.89 19.59 124.36L19.92 123.96C20.1 123.74 22.16 121.31 28.76 113.55L26.76 113.47C25.66 113.44 23.03 113.4 17.07 113.38L17.02 113.06C16.99 112.89 16.86 111.96 16.73 110.98C16.61 110.01 16.5 109.21 16.5 109.19C16.5 109.18 19.16 109.19 22.4 109.22C25.64 109.25 35.66 109.3 44.68 109.33C53.69 109.37 67.7 109.42 90.55 109.53L91.97 108.48C92.76 107.9 93.46 107.37 93.55 107.3C93.64 107.22 94.02 104.89 94.59 100.8C95.09 97.29 95.48 94.41 95.47 94.39C95.46 94.38 92.72 95.52 83.32 99.49L80.11 98.79C78.34 98.41 76.82 98.1 76.72 98.09C76.63 98.09 75.13 98.91 70.23 101.76L68.44 100.95C66.97 100.28 66.56 100.14 66.14 100.16C65.85 100.17 64.46 100.3 63.03 100.43C61.61 100.57 60.44 100.64 60.44 100.6C60.44 100.55 60.85 99.31 62.27 95.16L60.35 92.37L62.28 90.64C63.33 89.68 64.2 88.85 64.2 88.79C64.2 88.73 63.89 87.51 63.51 86.08C63.14 84.66 62.84 83.49 62.86 83.48C62.88 83.46 63.84 83.4 65 83.32C66.16 83.25 67.21 83.16 67.34 83.11C67.57 83.04 67.55 82.97 66.17 79.17L67.9 75.75L70.37 74.96C71.72 74.52 72.86 74.13 72.89 74.1C72.92 74.07 72.64 73.38 72.28 72.57C71.92 71.75 71.63 71.08 71.64 71.07C71.65 71.07 72.99 70.14 77.58 66.97L80.36 67.2C81.9 67.32 83.23 67.4 83.32 67.36C83.42 67.33 84.21 66.2 85.09 64.84C85.96 63.49 86.72 62.38 86.77 62.38C86.81 62.38 87.77 62.87 88.9 63.46C90.03 64.06 90.99 64.54 91.04 64.54C91.08 64.54 91.43 63.67 91.8 62.6C92.18 61.53 92.51 60.61 92.54 60.56C92.58 60.5 93.77 60.79 97.78 61.92L100.03 60.85C101.26 60.26 102.37 59.78 102.48 59.77ZM174.19 60.56C174.24 60.56 174.74 61.49 175.31 62.64C175.88 63.78 176.65 65.38 177.01 66.19C177.37 67.01 177.96 68.41 178.31 69.32C178.67 70.23 179.29 71.92 179.68 73.08C180.07 74.24 180.58 75.85 180.81 76.66C181.04 77.48 181.22 78.16 181.2 78.17C181.18 78.19 179.85 78.58 178.26 79.05C176.66 79.52 175.3 79.9 175.24 79.91C175.18 79.91 175 79.46 174.85 78.91C174.7 78.37 174.33 77.12 174.02 76.15C173.71 75.18 173.42 74.35 173.38 74.29C173.34 74.24 167.8 76.26 161.07 78.78C154.34 81.29 148.45 83.49 147.13 83.99L146.66 82.77C146.4 82.11 146.08 81.3 145.72 80.42L158.4 74.56C165.37 71.33 171.08 68.65 171.08 68.58C171.09 68.52 170.54 67.36 169.86 66C169.19 64.64 168.67 63.5 168.7 63.48C168.73 63.45 169.96 62.79 171.43 62C172.9 61.21 174.14 60.57 174.19 60.56ZM25.07 62.49C25.15 62.49 26.47 62.85 28 63.3C29.54 63.74 31.84 64.44 33.12 64.85C34.41 65.25 36.53 65.96 37.85 66.42C39.16 66.88 41.26 67.64 42.52 68.11C43.77 68.58 45.69 69.32 46.78 69.76C47.88 70.19 49.7 70.94 50.83 71.42C51.95 71.9 53.91 72.76 55.18 73.34C56.45 73.92 57.49 74.44 57.48 74.5C57.48 74.56 57.31 74.9 57.1 75.24C56.89 75.59 56.45 76.37 55.55 78.09L54.95 77.85C54.62 77.72 53.46 77.28 52.36 76.87C51.27 76.46 49.82 75.93 47.92 75.24L47.68 75.84C47.55 76.17 47.26 76.87 47.04 77.4C46.82 77.94 46.55 78.62 46.22 79.45L46.64 79.72C46.88 79.87 48.45 80.75 50.14 81.68C51.83 82.6 53.23 83.37 53.25 83.37C53.27 83.38 53.11 83.94 52.89 84.63C52.67 85.32 52.38 86.27 52.24 86.74C52.11 87.21 51.99 87.61 51.98 87.62C51.97 87.64 51.2 87.3 50.26 86.87C49.32 86.43 47.55 85.6 46.33 85.01C45.11 84.42 42.96 83.33 41.55 82.59C40.14 81.85 37.83 80.6 36.43 79.82C35.02 79.04 32.61 77.64 31.08 76.73C29.54 75.81 27.49 74.55 26.52 73.93C25.55 73.32 24 72.31 23.08 71.69C22.12 71.05 21.42 70.51 21.44 70.43C21.47 70.35 21.74 69.65 22.06 68.87C22.37 68.08 22.97 66.68 23.39 65.74C23.81 64.8 24.33 63.68 24.54 63.26C24.76 62.84 24.99 62.49 25.07 62.49Z" />
		<path class="shp1" d="M30.22 69.75C30.28 69.82 31.51 70.6 32.95 71.5C34.39 72.39 36.72 73.81 38.13 74.64C39.54 75.47 40.73 76.12 40.77 76.07C40.81 76.02 41.08 75.39 41.37 74.67C41.65 73.95 41.85 73.33 41.8 73.29C41.76 73.25 40.46 72.81 38.93 72.3C37.4 71.8 34.96 71.03 33.52 70.58C32.08 70.14 30.73 69.74 30.51 69.71C30.24 69.66 30.15 69.67 30.22 69.75ZM120.22 77.21C120.14 77.91 120.07 78.5 120.06 78.51C120.04 78.52 119.44 78.62 118.71 78.74L117.39 78.94C114.76 82.02 114.16 82.81 114.23 82.87C114.29 82.92 115.5 83.19 116.9 83.48L119.46 84.01C121.89 86.43 122.6 87.16 122.59 87.19C122.59 87.23 121.95 87.71 121.17 88.28C120.39 88.84 119.75 89.33 119.76 89.36C119.76 89.39 120.36 89.94 121.09 90.58C121.83 91.22 122.48 91.75 122.54 91.76C122.6 91.77 122.93 91.26 123.28 90.62L123.9 89.47C126.11 88.48 126.8 88.17 126.86 88.14C126.93 88.11 127.18 88.36 127.42 88.69C127.67 89.03 127.9 89.34 127.94 89.39C127.97 89.43 128.3 89.11 128.66 88.67L129.31 87.88L127.29 84.18C125.52 83.21 124.97 82.9 124.94 82.87C124.9 82.84 124.77 82.17 124.65 81.39C124.47 80.29 124.36 79.9 124.17 79.68C124.03 79.52 123.14 78.62 122.2 77.66C121.26 76.71 120.46 75.92 120.42 75.92C120.39 75.92 120.3 76.5 120.22 77.21Z" />
		<path class="shp0" d="M20.3 81.36C19.42 82.03 18.46 82.79 18.17 83.04L17.65 83.49C17.04 87.2 16.76 89.2 16.63 90.32C16.5 91.45 16.34 93.04 16.28 93.85C16.21 94.67 16.16 95.65 16.16 96.04L16.16 96.76C17.89 99.18 18.67 100.26 19.01 100.71L19.64 101.54L46.73 101.54C47.52 100.86 48.24 100.28 48.83 99.82C49.43 99.35 50.02 98.9 50.16 98.8C50.38 98.65 50.42 98.47 50.53 96.87C50.6 95.9 50.74 94.52 50.83 93.8C50.92 93.08 51.07 92.08 51.15 91.58L51.3 90.67C50.13 89.34 49.47 88.56 49.08 88.08C48.45 87.28 48.32 87.18 47.78 87.03C47.45 86.94 41.57 85.35 34.72 83.5C27.86 81.65 22.18 80.14 22.08 80.14C21.99 80.14 21.19 80.69 20.3 81.36ZM171.94 82.57C168.56 83.46 165.74 84.21 165.67 84.24C165.6 84.27 164.91 85.24 164.14 86.4L162.74 88.5C163.2 91.68 163.4 93.3 163.49 94.16C163.57 95.01 163.61 95.74 163.57 95.77C163.54 95.8 162.01 95.95 160.16 96.12C158.31 96.28 156.62 96.41 156.4 96.42L156 96.42C155.87 94.69 155.76 93.63 155.67 92.94C155.58 92.25 155.51 91.68 155.53 91.67C155.54 91.65 156.14 91.53 156.86 91.4C157.58 91.27 158.18 91.15 158.2 91.14C158.22 91.13 158.15 90.63 158.05 90.04C157.96 89.45 157.77 88.42 157.64 87.76C157.5 87.11 157.36 86.53 157.33 86.48C157.29 86.43 156.08 86.7 154.64 87.07C152.31 87.68 151.99 87.79 151.74 88.08C151.58 88.26 150.9 89.06 150.23 89.85L149 91.29C149.27 93.01 149.4 93.95 149.46 94.48C149.52 95.01 149.61 96.16 149.66 97.02L149.74 98.6C150.8 99.36 151.65 100.02 152.31 100.56L153.5 101.53L166.59 101.53C167.56 100.44 168.34 99.54 168.96 98.81C169.83 97.78 170.07 97.42 170.07 97.15C170.07 96.97 169.98 95.84 169.89 94.65C169.79 93.46 169.62 91.77 169.51 90.89C169.39 90.02 169.32 89.27 169.35 89.24C169.38 89.21 171.07 88.9 173.1 88.56C175.36 88.18 176.82 87.98 176.84 88.05C176.87 88.11 176.99 89.01 177.11 90.04C177.24 91.07 177.4 92.51 177.46 93.23C177.52 93.95 177.56 94.54 177.55 94.56C177.53 94.57 176.96 94.63 176.27 94.7C175.58 94.76 175 94.83 174.99 94.85C174.98 94.86 175.02 95.62 175.08 96.53C175.13 97.44 175.18 98.93 175.18 99.86L175.18 101.54L180.54 101.54C182.18 99.29 182.98 98.17 183.37 97.61L184.08 96.59C183.89 93.59 183.73 91.79 183.6 90.67C183.48 89.54 183.22 87.68 183.04 86.54C182.85 85.4 182.7 84.45 182.7 84.43C182.7 84.42 182 83.84 181.14 83.14C180.27 82.45 179.29 81.67 178.94 81.41C178.6 81.15 178.26 80.94 178.2 80.95C178.14 80.96 175.32 81.69 171.94 82.57Z" />
		<path class="shp1" d="M23.23 88.87C23.1 89.86 22.9 91.52 22.79 92.56C22.68 93.61 22.62 94.49 22.65 94.52C22.68 94.56 27.52 95.02 33.41 95.55C39.29 96.08 44.12 96.5 44.13 96.49C44.15 96.48 44.21 95.91 44.28 95.22C44.34 94.53 44.47 93.33 44.57 92.54C44.67 91.76 44.71 91.1 44.67 91.06C44.63 91.03 39.85 90.12 34.05 89.05C28.25 87.97 23.5 87.08 23.49 87.08C23.48 87.08 23.37 87.89 23.23 88.87Z" />
		<path class="shp2" d="M17.14 113.8C17.18 114.04 17.41 115.25 17.66 116.51C17.9 117.76 18.36 119.76 18.66 120.94C18.97 122.13 19.31 123.39 19.41 123.73L19.6 124.36C20.1 123.74 22.16 121.31 24.5 118.55L28.76 113.55C25.66 113.44 23.03 113.4 20.91 113.39L17.06 113.38L17.14 113.8Z" />
		<path class="shp3" d="M27.82 121.13C24.26 125.33 21.3 128.84 21.26 128.93C21.21 129.02 21.35 129.54 21.6 130.17C21.91 130.97 22.07 131.25 22.2 131.21C22.29 131.19 26.3 130.04 31.1 128.67C36.68 127.08 39.84 126.13 39.84 126.04C39.84 125.96 39.22 123.3 38.47 120.12C37.72 116.94 37.05 114.15 36.99 113.92L36.88 113.49L34.3 113.49L27.82 121.13Z" />
		<path class="shp4" d="M41.26 113.75C41.3 113.89 41.99 116.82 42.8 120.26C44.19 126.13 44.3 126.54 44.59 126.75C44.76 126.88 47 128.29 49.57 129.9C53.94 132.64 54.25 132.81 54.43 132.63C54.53 132.53 56.16 130.43 58.04 127.97C59.93 125.52 61.47 123.47 61.47 123.42C61.47 123.37 59.84 122.91 57.85 122.39C54.99 121.64 54.18 121.39 53.96 121.17C53.8 121.02 52.19 119.23 50.37 117.2L47.07 113.5L41.2 113.49L41.26 113.75Z" />
		<path class="shp5" d="M53 113.86C53.13 114 53.92 114.88 54.75 115.82C55.59 116.76 56.3 117.57 56.34 117.61C56.37 117.65 60.14 118.67 64.71 119.86C69.28 121.06 73.1 122.02 73.19 121.99C73.29 121.97 76.18 120.11 79.62 117.86L85.87 113.77C78.74 113.67 71.29 113.63 64.71 113.62L52.76 113.6L53 113.86Z" />
		<path class="shp2" d="M83.78 120.15C78.36 123.69 73.91 126.58 73.88 126.58C73.84 126.58 72.05 126.12 69.89 125.55C66.71 124.72 65.94 124.55 65.85 124.67C65.79 124.76 64 127.09 61.87 129.86C59.74 132.63 58 134.96 58 135.03C58 135.1 59.88 136.32 62.18 137.75L66.36 140.35C81.85 134.42 86.4 132.64 86.47 132.57C86.54 132.5 88.78 128.29 91.45 123.22C94.11 118.15 96.3 113.94 96.3 113.86C96.3 113.75 95.96 113.72 94.96 113.72L93.62 113.72L83.78 120.15Z" />
		<path class="shp3" d="M101.12 113.86C101.07 113.94 98.43 118.94 95.25 124.99L89.47 135.97L84.06 138.05C83.95 138.73 83.86 140.67 83.79 142.8C83.72 144.93 83.68 146.68 83.69 146.68C83.71 146.69 86.95 146.24 90.89 145.69C94.84 145.14 98.13 144.65 98.21 144.6C98.29 144.55 99.4 142.87 100.69 140.87L103.04 137.22C102.66 128.4 102.48 124.15 102.39 122.08C102.3 120.02 102.2 117.4 102.16 116.28C102.12 115.15 102.07 114.11 102.04 113.97C102 113.77 101.92 113.72 101.6 113.72C101.38 113.72 101.17 113.78 101.12 113.86Z" />
		<path class="shp4" d="M112.12 113.97C112.22 114.07 114.94 116.23 118.18 118.77L124.08 123.39L140.18 122.69C146.53 118.91 149.73 117.01 151.38 116.02C153.04 115.04 154.41 114.16 154.43 114.09C154.46 113.97 153.21 113.94 148.46 113.94C145.16 113.94 135.59 113.91 127.21 113.87C113.59 113.81 111.97 113.82 112.12 113.97Z" />
		<path class="shp3" d="M160.51 115.43C159.23 116.18 158.2 116.83 158.21 116.88C158.23 116.92 159.69 118.16 161.48 119.64C163.26 121.11 164.83 122.38 164.97 122.47C165.2 122.6 166.11 122.4 173.71 120.48C178.37 119.31 182.2 118.34 182.22 118.34C182.23 118.33 182.43 117.43 182.65 116.33C182.87 115.24 183.02 114.28 182.99 114.2C182.94 114.09 180.81 114.06 172.88 114.06L162.83 114.06L160.51 115.43Z" />
		<path class="shp6" d="M106.32 115.28C106.32 115.52 106.52 120.51 106.77 126.38C107.02 132.25 107.26 137.12 107.3 137.19C107.35 137.27 109.48 140.44 112.05 144.22C114.62 148.01 116.72 151.12 116.72 151.14C116.73 151.15 118.68 151.67 121.06 152.29C123.44 152.9 125.4 153.37 125.42 153.34C125.43 153.3 123.83 149.64 121.85 145.19L118.25 137.11C120.4 128.73 120.98 126.26 120.93 126.22C120.87 126.19 117.59 123.61 113.63 120.5C109.67 117.4 106.41 114.85 106.37 114.85C106.34 114.85 106.32 115.05 106.32 115.28Z" />
		<path class="shp5" d="M149.21 122.18C146.47 123.82 144.24 125.2 144.25 125.24C144.27 125.29 146.28 127.5 148.72 130.16C151.16 132.81 153.18 134.99 153.22 135C153.25 135.01 155.17 132.88 157.48 130.27C159.8 127.66 161.7 125.46 161.7 125.38C161.7 125.31 160.06 123.89 158.07 122.24C156.08 120.59 154.39 119.23 154.31 119.22C154.24 119.21 151.94 120.54 149.21 122.18Z" />
		<path class="shp6" d="M174.85 124.5C171.75 125.29 169.23 125.96 169.24 126C169.25 126.04 171.09 127.58 173.32 129.43C175.55 131.27 177.43 132.78 177.5 132.78C177.57 132.78 177.95 131.96 178.35 130.96C178.75 129.96 179.48 127.94 179.96 126.47C180.45 124.99 180.88 123.62 180.92 123.42C180.98 123.09 180.96 123.05 180.73 123.06C180.59 123.07 177.95 123.71 174.85 124.5Z" />
		<path class="shp2" d="M131.37 127.25C126.04 127.5 125.05 127.57 125.01 127.72C124.98 127.81 124.51 129.64 123.97 131.78L122.99 135.66L141.04 142.29C147.82 138.72 149.8 137.64 149.8 137.59C149.8 137.55 147.61 135.14 144.94 132.24L140.08 126.98C138.22 126.95 134.84 127.08 131.37 127.25Z" />
		<path class="shp4" d="M160.98 132.65C158.76 135.17 157 137.25 157.05 137.29C157.1 137.33 160.14 138.42 163.8 139.72C167.46 141.03 170.92 142.26 171.49 142.47L172.51 142.84C173.95 140.34 174.67 139 175.05 138.25L175.73 136.88C167.54 130.09 165.13 128.11 165.08 128.1C165.04 128.09 163.19 130.14 160.98 132.65Z" />
		<path class="shp6" d="M31.19 133C27.21 134.14 23.9 135.09 23.82 135.12C23.73 135.16 24.06 135.93 24.79 137.39C25.4 138.61 26.28 140.29 26.75 141.12C27.22 141.95 27.63 142.63 27.66 142.63C27.69 142.63 30.18 140.04 33.18 136.88C36.19 133.71 38.65 131.08 38.65 131.02C38.65 130.95 38.6 130.91 38.53 130.92C38.47 130.92 35.17 131.86 31.19 133Z" />
		<path class="shp5" d="M37.08 138.87C33.21 142.94 30.05 146.34 30.05 146.41C30.06 146.49 30.53 147.23 31.11 148.04C31.68 148.86 32.26 149.67 32.38 149.83L32.61 150.13C37.2 148.41 40.55 147.15 43.03 146.23L47.52 144.56C47.95 141.96 48.11 141.09 48.17 140.95C48.22 140.81 49.04 139.68 49.98 138.45C51.33 136.67 51.66 136.17 51.54 136.07C51.46 136 49.77 134.94 47.78 133.71C45.79 132.48 44.15 131.47 44.14 131.47C44.12 131.47 40.94 134.8 37.08 138.87Z" />
		<path class="shp6" d="M53.78 140.37C52.97 141.44 52.24 142.44 52.17 142.61C52.09 142.78 51.87 143.91 51.68 145.13C51.48 146.35 51.34 147.36 51.36 147.37C51.38 147.37 54.69 148.74 58.71 150.41L66.02 153.44C77.01 147.95 77.97 147.51 78.63 147.4C79.05 147.34 79.41 147.27 79.42 147.26C79.43 147.25 79.5 145.59 79.59 143.58C79.67 141.56 79.7 139.89 79.65 139.85C79.61 139.81 76.49 140.96 72.74 142.4L65.91 145.02C57.7 139.9 55.31 138.42 55.29 138.42C55.28 138.43 54.6 139.3 53.78 140.37Z" />
		<path class="shp3" d="M124.52 140.81C124.53 140.87 125.9 143.98 127.57 147.72C129.23 151.46 130.66 154.59 130.72 154.66C130.79 154.73 133.17 155.39 136 156.11L141.15 157.43C150.72 151.76 153.56 150.06 153.63 149.99C153.73 149.89 153.52 148.8 152.81 145.65C152.28 143.33 151.83 141.42 151.79 141.41C151.76 141.39 149.52 142.55 146.81 143.98C144.11 145.42 141.76 146.65 141.61 146.72C141.35 146.84 140.45 146.54 133.35 143.93C128.97 142.33 125.19 140.94 124.95 140.86C124.71 140.77 124.52 140.75 124.52 140.81Z" />
		<path class="shp2" d="M156.25 141.73C156.27 141.88 157.14 145.79 158.17 150.43C159.21 155.06 160.08 158.88 160.1 158.91C160.13 158.94 160.61 158.48 161.16 157.88C161.72 157.29 162.76 156.14 163.47 155.32C164.19 154.51 165.26 153.23 165.86 152.48C166.47 151.72 167.44 150.44 168.04 149.63C168.63 148.82 169.37 147.78 169.67 147.32C169.98 146.87 170.21 146.48 170.18 146.45C170.15 146.43 167.07 145.32 163.35 143.99C159.62 142.66 156.49 141.55 156.39 141.52C156.25 141.47 156.22 141.53 156.25 141.73ZM103.33 144.51L101.54 147.3C100.74 158.1 100.53 161.25 100.54 161.26C100.56 161.26 103.62 163 107.34 165.11C111.88 167.68 114.16 168.91 114.27 168.85C114.35 168.8 116.71 166.24 119.52 163.18C122.61 159.8 124.57 157.57 124.49 157.53C124.42 157.49 122.11 156.88 119.35 156.18C116.6 155.48 114.27 154.83 114.17 154.74C114.08 154.64 112.05 151.69 109.66 148.17C107.27 144.65 105.27 141.76 105.22 141.75C105.16 141.73 104.31 142.97 103.33 144.51Z" />
		<path class="shp4" d="M90.27 149.98C86.61 150.51 83.58 150.97 83.55 151C83.52 151.04 83.44 152.49 83.38 154.22L83.27 157.37C87.68 162.56 89.01 164.08 89.07 164.11C89.13 164.13 90.77 163.45 92.71 162.6C94.66 161.74 96.27 161.02 96.3 160.99C96.33 160.96 96.55 158.34 96.78 155.17C97.01 152 97.2 149.31 97.21 149.2C97.21 149.09 97.15 149.01 97.07 149.02C96.99 149.02 93.93 149.46 90.27 149.98ZM40.97 151.47C37.88 152.62 35.34 153.58 35.32 153.59C35.31 153.6 35.95 154.36 36.73 155.26C37.51 156.17 39.51 158.26 41.16 159.9C42.81 161.55 44.23 162.89 44.31 162.89C44.41 162.89 44.79 160.88 45.57 156.18C46.18 152.48 46.67 149.44 46.64 149.41C46.62 149.39 44.07 150.31 40.97 151.47Z" />
		<path class="shp3" d="M49.41 158.65C48.77 162.52 48.22 165.78 48.19 165.91C48.14 166.09 48.47 166.39 49.97 167.5C50.99 168.25 52.02 169.02 52.28 169.21L52.73 169.55C63.9 163.95 64.66 163.54 64.66 163.32C64.66 163.18 64.54 161.75 64.4 160.14L64.14 157.21C53.73 152.88 50.68 151.62 50.64 151.62C50.6 151.62 50.05 154.79 49.41 158.65Z" />
		<path class="shp2" d="M73.71 154.32C70.76 155.79 68.35 157 68.34 157.01C68.34 157.02 68.76 161.79 69.28 167.62C69.8 173.44 70.23 178.3 70.23 178.43C70.23 178.62 70.45 178.74 71.47 179.11L72.71 179.57C75.42 172.09 76.26 169.89 76.32 169.84C76.39 169.8 78.05 169.05 80.02 168.19C81.99 167.32 83.93 166.47 84.32 166.29L85.03 165.96C84.63 165.45 83.28 163.85 81.77 162.08L79.02 158.85C79.17 154.79 79.23 153.17 79.25 152.62C79.27 152.01 79.24 151.62 79.17 151.63C79.11 151.63 76.65 152.84 73.71 154.32Z" />
		<path class="shp6" d="M149.63 157.27C146.94 158.86 144.63 160.23 144.51 160.32C144.29 160.46 144.37 160.63 146.48 164.44C147.69 166.62 148.72 168.45 148.76 168.5C148.8 168.55 149.6 168.02 150.54 167.32C151.48 166.62 152.97 165.45 153.84 164.72C154.72 163.98 155.68 163.16 155.99 162.88L156.54 162.38C155.08 155.53 154.78 154.36 154.67 154.36C154.59 154.36 152.32 155.67 149.63 157.27Z" />
		<path class="shp5" d="M128.38 159.71C127.92 160.22 127.55 160.67 127.55 160.72C127.55 160.78 129.85 164.05 132.67 168C135.49 171.95 137.83 175.18 137.88 175.18C137.92 175.18 138.69 174.8 139.58 174.32C140.48 173.84 142.12 172.91 143.23 172.24C144.67 171.38 145.25 170.98 145.21 170.86C145.18 170.77 144.01 168.61 142.6 166.08L140.05 161.47C131.95 159.4 129.51 158.8 129.4 158.8C129.3 158.79 128.84 159.21 128.38 159.71Z" />
		<path class="shp3" d="M121.19 167.58L117.81 171.26C120.42 173.82 122.41 175.77 123.93 177.24L126.68 179.91C130.26 178.58 131.9 177.94 132.63 177.63C133.39 177.31 133.93 177.01 133.89 176.95C133.85 176.89 131.78 173.97 129.28 170.46C126.78 166.96 124.7 164.04 124.65 163.99C124.61 163.94 123.05 165.55 121.19 167.58Z" />
		<path class="shp5" d="M95.05 166.12C93.33 166.87 91.93 167.52 91.95 167.55C91.96 167.59 94.97 171.15 98.64 175.47C102.31 179.79 105.46 183.48 105.64 183.67L105.98 184.01L107.94 183.78C110.92 175.13 111.76 172.57 111.74 172.51C111.72 172.45 108.81 170.76 105.28 168.76C101.75 166.76 98.71 165.04 98.52 164.93L98.18 164.74L95.05 166.12ZM60.95 170.08C58.61 171.25 56.91 172.16 56.97 172.22C57.03 172.27 57.78 172.7 58.62 173.19C59.47 173.67 61.39 174.68 62.89 175.42C64.39 176.17 65.69 176.78 65.77 176.78C65.87 176.78 65.89 176.63 65.85 176.24C65.81 175.94 65.63 173.98 65.44 171.88C65.26 169.79 65.09 168.06 65.07 168.05C65.05 168.05 63.2 168.96 60.95 170.08Z" />
		<path class="shp3" d="M83.67 171.15C81.51 172.12 79.7 172.92 79.65 172.93C79.6 172.95 78.92 174.73 78.14 176.89C77.36 179.05 76.74 180.83 76.75 180.84C76.77 180.85 77.14 180.96 77.58 181.09C78.01 181.21 79.01 181.48 79.8 181.68C80.58 181.87 81.9 182.18 82.73 182.37L84.23 182.7C84.65 182.12 86.14 179.95 87.8 177.49C89.47 175.03 90.85 172.98 90.87 172.93C90.88 172.88 90.24 172.06 89.44 171.11C88.53 170.03 87.92 169.38 87.79 169.39C87.68 169.4 85.83 170.19 83.67 171.15Z" />
		<path class="shp4" d="M115.16 175.64C115.01 176.11 114.36 178.01 113.73 179.85C113.1 181.7 112.59 183.22 112.61 183.23C112.62 183.24 113.51 183.1 114.57 182.91C115.63 182.73 117.3 182.4 118.27 182.18C119.24 181.96 120.48 181.67 121.03 181.53L122.03 181.27C119.25 178.54 117.77 177.08 116.94 176.27L115.45 174.79L115.16 175.64Z" />
		<path class="shp6" d="M91.32 179.77C89.72 182.12 88.95 183.35 89.05 183.39C89.12 183.43 89.95 183.55 90.89 183.65C91.83 183.75 93.27 183.89 94.08 183.95C94.89 184.02 96.69 184.1 98.06 184.14L100.57 184.21C100.11 183.7 98.68 182.01 97.1 180.14C95.51 178.26 94.11 176.61 93.98 176.47L93.74 176.22L91.32 179.77Z" />
	</g>
</svg>