<svg width="200" height="200" viewBox="0 0 200 200" fill="none" xmlns="http://www.w3.org/2000/svg">
<path d="M100 59.8541C110.361 59.8541 119.092 52.8766 121.751 43.3643C122.667 40.0844 125.343 37.2721 128.748 37.2721C129.097 37.2721 129.446 37.3018 129.79 37.3608L181.564 46.2362C185.177 46.8557 187.819 49.9888 187.819 53.6553V89.9635C187.819 94.1208 184.449 97.4909 180.292 97.4909H140.146C104.712 97.4909 75.4055 123.723 70.5855 157.826C70.1972 160.574 67.9158 162.728 65.1406 162.728C62.2209 162.728 59.8541 160.361 59.8541 157.441V105.018C59.8541 100.861 56.484 97.4909 52.3268 97.4909H19.7083C15.551 97.4909 12.1809 94.1208 12.1809 89.9635V53.6553C12.1809 49.9888 14.8226 46.8557 18.4364 46.2362L70.2098 37.3608C70.554 37.3018 70.9025 37.2721 71.2517 37.2721C74.6572 37.2721 77.3325 40.0844 78.2493 43.3643C80.908 52.8766 89.6392 59.8541 100 59.8541Z" fill="#00FFFF"/>
<path d="M140.146 155.201C140.146 159.358 136.776 162.728 132.619 162.728H88.3071C83.9058 162.728 80.4022 158.947 81.3551 154.65C86.8053 130.074 107.272 111.147 132.634 107.991C136.759 107.478 140.146 110.897 140.146 115.055V155.201Z" fill="#00FFFF"/>
</svg>
